<svg width="38" height="38" viewBox="0 0 38 38" fill="none" xmlns="http://www.w3.org/2000/svg">
  <rect width="38" height="38" rx="8" fill="white"/>
  <path d="M19 5C13.477 5 9 9.477 9 15C9 20.523 13.477 25 19 25C24.523 25 29 20.523 29 15C29 9.477 24.523 5 19 5Z" fill="#81C2BE"/>
  <path d="M19 28C11.163 28 5 21.837 5 15C5 8.163 11.163 2 19 2C26.837 2 33 8.163 33 15C33 21.837 26.837 28 19 28Z" fill="#171717" fill-opacity="0.2"/>
  <path d="M18 10C18.552 10 19 10.448 19 11C19 11.552 18.552 12 18 12C17.448 12 17 11.552 17 11C17 10.448 17.448 10 18 10Z" fill="#171717"/>
</svg>
